<svg width="283" height="64" viewBox="-344 272.1 151.7 52.2" fill="none" 
    xmlns="http://www.w3.org/2000/svg">
    <!-- <path d="M141.04 16c-11.04 0-19 7.2-19 18s8.96 18 20 18c6.67 0 12.55-2.64 16.19-7.09l-7.65-4.42c-2.02 2.21-5.09 3.5-8.54 3.5-4.79 0-8.86-2.5-10.37-6.5h28.02c.22-1.12.35-2.28.35-3.5 0-10.79-7.96-17.99-19-17.99zm-9.46 14.5c1.25-3.99 4.67-6.5 9.45-6.5 4.79 0 8.21 2.51 9.45 6.5h-18.9zM248.72 16c-11.04 0-19 7.2-19 18s8.96 18 20 18c6.67 0 12.55-2.64 16.19-7.09l-7.65-4.42c-2.02 2.21-5.09 3.5-8.54 3.5-4.79 0-8.86-2.5-10.37-6.5h28.02c.22-1.12.35-2.28.35-3.5 0-10.79-7.96-17.99-19-17.99zm-9.45 14.5c1.25-3.99 4.67-6.5 9.45-6.5 4.79 0 8.21 2.51 9.45 6.5h-18.9zM200.24 34c0 6 3.92 10 10 10 4.12 0 7.21-1.87 8.8-4.92l7.68 4.43c-3.18 5.3-9.14 8.49-16.48 8.49-11.05 0-19-7.2-19-18s7.96-18 19-18c7.34 0 13.29 3.19 16.48 8.49l-7.68 4.43c-1.59-3.05-4.68-4.92-8.8-4.92-6.07 0-10 4-10 10zm82.48-29v46h-9V5h9zM36.95 0L73.9 64H0L36.95 0zm92.38 5l-27.71 48L73.91 5H84.3l17.32 30 17.32-30h10.39zm58.91 12v9.69c-1-.29-2.06-.49-3.2-.49-5.81 0-10 4-10 10V51h-9V17h9v9.2c0-5.08 5.91-9.2 13.2-9.2z" fill="#000"/> -->
    <g>
        <g>
            <polygon class="st0" points="-309.9,298.6 -292.1,298.6 -292.1,296.4 -306.9,296.4 -306.9,278.2 -292.1,278.2 -292.1,275.6 
                -309.9,275.6 		"/>
        </g>
        <g>
            <rect x="-304.4" y="285.6" class="st0" width="10.5" height="2.2"/>
        </g>
        <g>
            <polygon class="st0" points="-283.2,275.6 -283.2,298.6 -280.3,298.6 -280.3,279.3 -264,298.6 -259.6,298.6 -259.6,275.6 
                -262.7,275.6 -262.7,295.1 -278.7,275.6 		"/>
        </g>
        <g>
            <polygon class="st0" points="-219.2,275.6 -219.2,298.6 -216.2,298.6 -216.2,279.3 -199.9,298.6 -195.6,298.6 -195.6,275.6 
                -198.6,275.6 -198.6,295.1 -214.7,275.6 		"/>
        </g>
        <path class="st0" d="M-239.5,275.7c-6.3,0-11.5,5.1-11.5,11.4s5.1,11.5,11.5,11.5c6.3,0,11.5-5.1,11.5-11.5
            C-228,280.8-233.2,275.7-239.5,275.7z M-239.5,295.7c-4.7,0-8.6-3.8-8.6-8.6c0-4.7,3.8-8.6,8.6-8.6c4.7,0,8.6,3.8,8.6,8.6
            C-231,291.8-234.8,295.7-239.5,295.7z"/>
        <polygon class="st0" points="-334.5,287.1 -332.2,289.5 -318.4,275.7 -323,275.7 	"/>
        <polygon class="st0" points="-326.6,284.8 -340.4,298.6 -335.7,298.6 -324.3,287.1 	"/>
        <polygon class="st0" points="-329.8,281.6 -335.7,275.7 -340.4,275.7 -332.2,283.9 	"/>
        <polygon class="st0" points="-328.9,292.7 -323,298.6 -318.4,298.6 -326.6,290.4 	"/>
        <circle class="st0" cx="-239.5" cy="287.1" r="4.6"/>
    </g>
    <g>
        <path class="st0" d="M-339.1,318.8l-1.2,2.7h-1.4l4.9-10.9h1.3l4.9,10.9h-1.4l-1.2-2.7H-339.1z M-336.2,312.1l-2.4,5.5h4.9
            L-336.2,312.1z"/>
        <path class="st0" d="M-320.5,310.7c3.2,0,5.6,2.3,5.6,5.4s-2.4,5.4-5.6,5.4h-4.3v-10.8H-320.5z M-323.6,320.3h3.2
            c2.4,0,4.3-1.8,4.3-4.2s-1.9-4.3-4.4-4.3h-3.1C-323.6,311.8-323.6,320.3-323.6,320.3z"/>
        <path class="st0" d="M-305.8,321.5l-4.4-10.9h1.3l3.7,9.4l3.8-9.4h1.3l-4.4,10.9H-305.8z"/>
        <path class="st0" d="M-293,311.9v3.6h5.5v1.2h-5.5v3.7h6.3v1.2h-7.6v-10.9h7.4v1.2H-293z"/>
        <path class="st0" d="M-275.2,318.1c-0.2,0-0.5,0-0.7,0h-2.9v3.4h-1.2v-10.8h4c2.7,0,4.3,1.3,4.3,3.6c0,1.8-0.9,3-2.4,3.5l2.5,3.7
            h-1.4L-275.2,318.1z M-276,316.9c2,0,3.1-0.9,3.1-2.6c0-1.6-1.1-2.5-3.1-2.5h-2.9v5L-276,316.9L-276,316.9z"/>
        <path class="st0" d="M-261.5,311.9v9.7h-1.2v-9.7h-3.5v-1.2h8.3v1.2H-261.5z"/>
        <path class="st0" d="M-252.1,321.5v-10.8h1.2v10.9h-1.2V321.5z"/>
        <path class="st0" d="M-236.8,311.6l-0.5,1.2c-1-0.7-2.1-0.9-3-0.9c-1.4,0-2.3,0.5-2.3,1.4c0,2.8,6.1,1.3,6.1,5.3c0,1.8-1.6,3-3.9,3
            c-1.6,0-3.1-0.7-4.2-1.7l0.6-1.1c1,1,2.4,1.5,3.6,1.5c1.6,0,2.5-0.6,2.5-1.7c0-2.9-6.1-1.3-6.1-5.2c0-1.7,1.5-2.8,3.8-2.8
            C-239,310.6-237.7,311-236.8,311.6z"/>
        <path class="st0" d="M-229.9,321.5v-10.8h1.2v10.9h-1.2V321.5z"/>
        <path class="st0" d="M-213.5,321.5l-6.5-8.7v8.7h-1.2v-10.8h1.3l6.5,8.7v-8.7h1.2v10.9h-1.3V321.5z"/>
        <path class="st0" d="M-196.2,316.2v3.9c-1.1,0.9-2.6,1.4-4,1.4c-3.1,0-5.7-2.4-5.7-5.5c0-3.1,2.5-5.5,5.7-5.5c1.5,0,3,0.6,4,1.5
            l-0.7,0.9c-0.9-0.8-2.1-1.3-3.3-1.3c-2.5,0-4.5,1.9-4.5,4.3c0,2.4,2,4.3,4.5,4.3c1,0,2-0.3,2.9-0.9V316h1.1V316.2z"/>
    </g>
</svg>